<svg width="16" height="16" viewBox="0 0 16 16" fill="none" xmlns="http://www.w3.org/2000/svg">
<path d="M5.16663 3C5.16663 2.33696 5.43002 1.70107 5.89886 1.23223C6.3677 0.763392 7.00358 0.5 7.66663 0.5C8.32967 0.5 8.96555 0.763392 9.43439 1.23223C9.90323 1.70107 10.1666 2.33696 10.1666 3V12C10.1666 12.3978 10.0086 12.7794 9.72729 13.0607C9.44598 13.342 9.06445 13.5 8.66663 13.5C8.2688 13.5 7.88727 13.342 7.60597 13.0607C7.32466 12.7794 7.16663 12.3978 7.16663 12V5C7.16663 4.86739 7.2193 4.74021 7.31307 4.64645C7.40684 4.55268 7.53402 4.5 7.66663 4.5C7.79923 4.5 7.92641 4.55268 8.02018 4.64645C8.11395 4.74021 8.16663 4.86739 8.16663 5V12C8.16663 12.1326 8.2193 12.2598 8.31307 12.3536C8.40684 12.4473 8.53402 12.5 8.66663 12.5C8.79923 12.5 8.92641 12.4473 9.02018 12.3536C9.11395 12.2598 9.16663 12.1326 9.16663 12V3C9.16663 2.80302 9.12783 2.60796 9.05245 2.42597C8.97706 2.24399 8.86657 2.07863 8.72729 1.93934C8.588 1.80005 8.42264 1.68956 8.24065 1.61418C8.05866 1.5388 7.86361 1.5 7.66663 1.5C7.46964 1.5 7.27459 1.5388 7.0926 1.61418C6.91061 1.68956 6.74525 1.80005 6.60597 1.93934C6.46668 2.07863 6.35619 2.24399 6.28081 2.42597C6.20542 2.60796 6.16663 2.80302 6.16663 3V12C6.16663 12.663 6.43002 13.2989 6.89886 13.7678C7.3677 14.2366 8.00358 14.5 8.66663 14.5C9.32967 14.5 9.96555 14.2366 10.4344 13.7678C10.9032 13.2989 11.1666 12.663 11.1666 12V5C11.1666 4.86739 11.2193 4.74021 11.3131 4.64645C11.4068 4.55268 11.534 4.5 11.6666 4.5C11.7992 4.5 11.9264 4.55268 12.0202 4.64645C12.1139 4.74021 12.1666 4.86739 12.1666 5V12C12.1666 12.9283 11.7979 13.8185 11.1415 14.4749C10.4851 15.1313 9.59488 15.5 8.66663 15.5C7.73837 15.5 6.84813 15.1313 6.19175 14.4749C5.53538 13.8185 5.16663 12.9283 5.16663 12V3Z" fill="#272733"/>
</svg>
