<svg width="181" height="35" viewBox="0 0 181 35" fill="none" xmlns="http://www.w3.org/2000/svg">
<g clip-path="url(#clip0_12710_955)">
<path d="M0 27.048V7.168H4.592V23.016H14.224V27.048H0Z" fill="white"/>
<path d="M24.7314 27.216C23.2381 27.216 21.8848 26.936 20.6714 26.376C19.4768 25.7973 18.4408 25.032 17.5634 24.08C16.7048 23.1093 16.0421 22.0267 15.5754 20.832C15.1088 19.6187 14.8754 18.368 14.8754 17.08C14.8754 15.7547 15.1181 14.4947 15.6034 13.3C16.1074 12.1053 16.7981 11.0413 17.6754 10.108C18.5714 9.156 19.6261 8.40933 20.8394 7.868C22.0528 7.32667 23.3781 7.056 24.8154 7.056C26.2901 7.056 27.6248 7.34533 28.8194 7.924C30.0328 8.484 31.0688 9.24933 31.9274 10.22C32.8048 11.1907 33.4768 12.2827 33.9434 13.496C34.4101 14.6907 34.6434 15.9133 34.6434 17.164C34.6434 18.4893 34.4008 19.7493 33.9154 20.944C33.4301 22.1387 32.7394 23.212 31.8434 24.164C30.9474 25.0973 29.8928 25.844 28.6794 26.404C27.4848 26.9453 26.1688 27.216 24.7314 27.216ZM19.5514 17.136C19.5514 17.9013 19.6634 18.648 19.8874 19.376C20.1114 20.0853 20.4381 20.72 20.8674 21.28C21.3154 21.84 21.8661 22.288 22.5194 22.624C23.1728 22.96 23.9194 23.128 24.7594 23.128C25.6368 23.128 26.4021 22.96 27.0554 22.624C27.7088 22.2693 28.2501 21.8027 28.6794 21.224C29.1088 20.6453 29.4261 20.0013 29.6314 19.292C29.8554 18.564 29.9674 17.8267 29.9674 17.08C29.9674 16.3147 29.8554 15.5773 29.6314 14.868C29.4074 14.1587 29.0714 13.524 28.6234 12.964C28.1754 12.3853 27.6248 11.9373 26.9714 11.62C26.3181 11.3027 25.5808 11.144 24.7594 11.144C23.8821 11.144 23.1168 11.312 22.4634 11.648C21.8288 11.984 21.2874 12.4413 20.8394 13.02C20.4101 13.58 20.0834 14.224 19.8594 14.952C19.6541 15.6613 19.5514 16.3893 19.5514 17.136Z" fill="white"/>
<path d="M37.2969 27.048V7.168H46.2569C47.1902 7.168 48.0489 7.364 48.8329 7.756C49.6355 8.12933 50.3262 8.64267 50.9049 9.296C51.4835 9.93067 51.9315 10.6493 52.2489 11.452C52.5849 12.2547 52.7529 13.0667 52.7529 13.888C52.7529 14.7093 52.6222 15.4933 52.3609 16.24C52.0995 16.968 51.7262 17.6307 51.2409 18.228C50.7555 18.8067 50.1769 19.2827 49.5049 19.656L53.8729 27.048H48.8049L44.9969 20.636H41.8889V27.048H37.2969ZM41.8889 16.632H46.0889C46.4622 16.632 46.7889 16.52 47.0689 16.296C47.3675 16.0533 47.6102 15.7267 47.7969 15.316C47.9835 14.9053 48.0769 14.4293 48.0769 13.888C48.0769 13.3467 47.9649 12.88 47.7409 12.488C47.5355 12.0773 47.2742 11.76 46.9569 11.536C46.6395 11.312 46.3035 11.2 45.9489 11.2H41.8889V16.632Z" fill="white"/>
<path d="M70.0267 23.016V27.048H56.0547V7.168H69.7747V11.2H60.6467V15.064H68.4867V18.788H60.6467V23.016H70.0267Z" fill="white"/>
<path d="M88.4964 27.048V15.204L84.2124 23.828H81.6924L77.4084 15.204V27.048H72.8164V7.168H77.8004L82.9524 17.556L88.1324 7.168H93.0884V27.048H88.4964Z" fill="white"/>
<path d="M96.9062 27.048V7.168H101.498V27.048H96.9062Z" fill="white"/>
<path d="M105.301 27.048V7.168H113.785C114.737 7.168 115.605 7.364 116.389 7.756C117.191 8.12933 117.882 8.64267 118.461 9.296C119.039 9.93067 119.487 10.6493 119.805 11.452C120.122 12.2547 120.281 13.076 120.281 13.916C120.281 15.0547 120.01 16.1373 119.469 17.164C118.946 18.1907 118.209 19.0307 117.257 19.684C116.323 20.3187 115.213 20.636 113.925 20.636H109.893V27.048H105.301ZM109.893 16.632H113.645C113.999 16.632 114.326 16.5293 114.625 16.324C114.923 16.1187 115.166 15.8107 115.353 15.4C115.539 14.9893 115.633 14.4853 115.633 13.888C115.633 13.272 115.521 12.768 115.297 12.376C115.091 11.9653 114.821 11.6667 114.485 11.48C114.167 11.2933 113.831 11.2 113.477 11.2H109.893V16.632Z" fill="white"/>
<path d="M134.674 12.992C134.618 12.8987 134.422 12.7587 134.086 12.572C133.75 12.3667 133.33 12.152 132.826 11.928C132.322 11.704 131.771 11.508 131.174 11.34C130.577 11.172 129.979 11.088 129.382 11.088C128.598 11.088 127.991 11.228 127.562 11.508C127.133 11.7693 126.918 12.18 126.918 12.74C126.918 13.188 127.077 13.5427 127.394 13.804C127.73 14.0653 128.206 14.2987 128.822 14.504C129.438 14.6907 130.194 14.9147 131.09 15.176C132.359 15.512 133.461 15.9227 134.394 16.408C135.327 16.8747 136.037 17.4813 136.522 18.228C137.026 18.9747 137.278 19.964 137.278 21.196C137.278 22.316 137.073 23.268 136.662 24.052C136.251 24.8173 135.691 25.4427 134.982 25.928C134.291 26.3947 133.498 26.74 132.602 26.964C131.706 27.1693 130.782 27.272 129.83 27.272C128.859 27.272 127.861 27.1787 126.834 26.992C125.826 26.7867 124.855 26.5067 123.922 26.152C122.989 25.7787 122.13 25.3307 121.346 24.808L123.362 20.804C123.437 20.8973 123.679 21.0747 124.09 21.336C124.501 21.5787 125.005 21.84 125.602 22.12C126.218 22.3813 126.899 22.6147 127.646 22.82C128.393 23.0253 129.149 23.128 129.914 23.128C130.735 23.128 131.342 22.9973 131.734 22.736C132.145 22.4747 132.35 22.1107 132.35 21.644C132.35 21.14 132.135 20.748 131.706 20.468C131.295 20.188 130.726 19.936 129.998 19.712C129.289 19.488 128.467 19.236 127.534 18.956C126.321 18.5827 125.313 18.1627 124.51 17.696C123.726 17.2293 123.138 16.66 122.746 15.988C122.373 15.316 122.186 14.476 122.186 13.468C122.186 12.068 122.513 10.892 123.166 9.94C123.838 8.96933 124.734 8.24133 125.854 7.756C126.974 7.252 128.197 7 129.522 7C130.455 7 131.351 7.112 132.21 7.336C133.087 7.56 133.899 7.84 134.646 8.176C135.411 8.512 136.093 8.848 136.69 9.184L134.674 12.992Z" fill="white"/>
<path d="M148.513 27.216C146.926 27.216 145.573 26.9547 144.453 26.432C143.333 25.8907 142.418 25.1627 141.709 24.248C141.018 23.3147 140.505 22.26 140.169 21.084C139.851 19.8893 139.693 18.6387 139.693 17.332V7.168H144.285V17.332C144.285 18.0787 144.359 18.8067 144.509 19.516C144.658 20.2067 144.901 20.8227 145.237 21.364C145.573 21.9053 146.002 22.3347 146.525 22.652C147.066 22.9693 147.729 23.128 148.513 23.128C149.315 23.128 149.987 22.9693 150.529 22.652C151.07 22.316 151.499 21.8773 151.817 21.336C152.134 20.776 152.367 20.1507 152.517 19.46C152.666 18.7693 152.741 18.06 152.741 17.332V7.168H157.333V17.332C157.333 18.7133 157.155 20.0013 156.801 21.196C156.465 22.3907 155.942 23.4453 155.233 24.36C154.523 25.256 153.609 25.956 152.489 26.46C151.387 26.964 150.062 27.216 148.513 27.216Z" fill="white"/>
<path d="M176.571 27.048V15.204L172.287 23.828H169.767L165.483 15.204V27.048H160.891V7.168H165.875L171.027 17.556L176.207 7.168H181.163V27.048H176.571Z" fill="white"/>
</g>
<defs>
<clipPath id="clip0_12710_955">
<rect width="181" height="35" fill="white"/>
</clipPath>
</defs>
</svg>
